<svg version="1.1" xmlns="http://www.w3.org/2000/svg" xmlns:xlink="http://www.w3.org/1999/xlink" width="126.18346" height="86.30525" viewBox="0,0,126.18346,86.30525">
	<g transform="translate(-175.9083,-138.91666)">
		<g data-paper-data="{&quot;isPaintingLayer&quot;:true}" fill-rule="nonzero" stroke-linecap="butt" stroke-linejoin="miter" stroke-miterlimit="10" stroke-dasharray="" stroke-dashoffset="0" style="mix-blend-mode: normal">
			<g>
				<g fill="#ffffff" stroke="#ffffff" stroke-width="0.5">
					<path d="M269.67321,223.61017c0.20861,0.49301 -0.02197,1.06177 -0.51496,1.27039c-0.49301,0.20861 -1.06179,-0.02194 -1.27039,-0.51496l-5.94749,-14.48845c-0.20861,-0.49301 0.02197,-1.06177 0.51497,-1.27039c0.49301,-0.20861 1.06179,0.02195 1.27039,0.51498z"/>
					<path d="M273.86217,209.1247c0.20861,-0.49304 0.77739,-0.72357 1.27039,-0.51498c0.49299,0.20861 0.72357,0.77739 0.51496,1.27039l-5.9475,14.48845c-0.20861,0.49302 -0.77739,0.72358 -1.27041,0.51497c-0.49299,-0.20859 -0.72355,-0.77737 -0.51496,-1.27039z"/>
					<g>
						<path d="M206.0066,218.16692c-0.5171,0.13856 -1.0486,-0.1683 -1.18715,-0.6854c-0.13856,-0.5171 0.16831,-1.04859 0.6854,-1.18714l8.98242,-2.15878c0.5171,-0.13856 1.04859,0.16831 1.18714,0.6854c0.13856,0.5171 -0.1683,1.04859 -0.68539,1.18714z"/>
						<path d="M213.43086,219.9402c0.12179,-0.22913 0.33471,-0.40906 0.60513,-0.48152c0.51709,-0.13855 1.04858,0.16832 1.18714,0.6854c0.06488,0.2421 0.03209,0.48737 -0.07633,0.69948c-1.44069,2.51158 -4.46227,4.12799 -7.45252,4.12831c-4.53552,0 -8.21229,-3.67676 -8.21229,-8.21229c0,-4.53552 3.67678,-8.21229 8.21229,-8.21229c3.87459,0 7.12247,2.68326 7.98678,6.29291l-1.86945,0.5211c-0.63547,-2.79183 -3.13308,-4.87547 -6.11735,-4.87546c-3.46491,-0.00003 -6.27376,2.80882 -6.27375,6.27374c-0.00001,3.46491 2.80884,6.27377 6.27375,6.27374c2.24887,0.00001 4.62359,-1.19962 5.73657,-3.09314"/>
					</g>
					<g>
						<path d="M221.49663,224.00256c0,0.53535 -0.43394,0.96934 -0.96924,0.96934c-0.5353,0 -0.96924,-0.43399 -0.96924,-0.96934l0.0001,-24.63685c0,-0.53535 0.43394,-0.96932 0.96925,-0.96932c0.5353,0 0.96924,0.43398 0.96924,0.96932z"/>
						<path d="M229.42523,223.31719c0.37853,0.37854 0.37854,0.99226 0,1.3708c-0.37854,0.37854 -0.99226,0.37854 -1.3708,0l-8.21234,-7.24299c-0.37853,-0.37854 -0.37854,-0.99226 0,-1.3708c0.37854,-0.37854 0.99225,-0.37854 1.37079,0z"/>
						<path d="M221.21289,217.44497c-0.37854,0.37854 -0.99227,0.37854 -1.3708,0c-0.37854,-0.37854 -0.37853,-0.99227 0,-1.3708l8.21235,-7.24299c0.37854,-0.37854 0.99226,-0.37854 1.3708,0c0.37854,0.37854 0.37853,0.99225 0,1.37079z"/>
					</g>
					<g>
						<path d="M177.12764,200.33505c-0.53535,0 -0.96934,-0.43397 -0.96934,-0.96932c0,-0.53535 0.43399,-0.96932 0.96934,-0.96932h12.31843c0.53535,0 0.96933,0.43398 0.96933,0.96932c0,0.53535 -0.43398,0.96932 -0.96933,0.96932z"/>
						<path d="M189.44601,200.33499c-0.53532,0 -0.9693,-0.43397 -0.9693,-0.9693c0,-0.53532 0.43397,-0.9693 0.9693,-0.9693h12.31798c0.53532,0 0.96929,0.43397 0.96929,0.9693c0,0.53532 -0.43397,0.9693 -0.96929,0.9693z"/>
						<path d="M190.4153,224.00257c0,0.53535 -0.43395,0.96934 -0.96925,0.96934c-0.5353,0 -0.96925,-0.43399 -0.96925,-0.96934l0.0001,-24.63685c0,-0.53535 0.43396,-0.96932 0.96925,-0.96932c0.5353,0 0.96924,0.43397 0.96924,0.96932z"/>
					</g>
					<g>
						<path d="M240.94711,210.47501c-2.54805,0.23799 -4.65882,1.97846 -5.43428,4.32497l-1.92671,-0.13782c0.56613,-3.46881 3.58146,-6.11654 7.21632,-6.11664l-0.01149,0.00023c0.0181,-0.00051 0.03617,-0.00054 0.05415,-0.00001c0.41745,0.01163 0.7953,0.29427 0.90892,0.71829v-0.00001c0.13855,0.5171 -0.16831,1.04859 -0.6854,1.18714c-0.06354,0.01703 -0.1273,0.02732 -0.19053,0.03133"/>
						<path d="M235.52472,214.66359l-0.00001,9.33895c0,0.53453 -0.43397,0.96787 -0.9693,0.96786c-0.53532,0 -0.9693,-0.43333 -0.96929,-0.96786v-9.33895"/>
					</g>
					<path d="M301.84175,216.7481c0,2.17804 -0.86522,4.26687 -2.40532,5.80697c-1.5401,1.5401 -3.62893,2.40532 -5.80696,2.40532c-2.17804,0 -4.26686,-0.86522 -5.80697,-2.40532c-1.5401,-1.5401 -2.40531,-3.62893 -2.40531,-5.80697c0,-4.53552 3.67676,-8.21228 8.21228,-8.21228c4.53552,0 8.21229,3.67677 8.21229,8.21228zM289.19325,212.3119c-1.17656,1.17656 -1.83755,2.7723 -1.83754,4.43621c-0.00001,1.66391 0.66097,3.25966 1.83753,4.43621c1.17656,1.17656 2.77231,1.83754 4.43622,1.83753c1.66391,0.00001 3.25966,-0.66098 4.43621,-1.83753c1.17656,-1.17656 1.83754,-2.77231 1.83752,-4.43621c0.00001,-1.66391 -0.66097,-3.25966 -1.83752,-4.43621c-1.17656,-1.17656 -2.77231,-1.83753 -4.43621,-1.83751c-1.66391,-0.00001 -3.25966,0.66096 -4.43621,1.83751z"/>
					<g>
						<path d="M250.25047,218.15542c-0.5171,0.13856 -1.0486,-0.1683 -1.18715,-0.6854c-0.13856,-0.5171 0.16831,-1.0486 0.68541,-1.18714l8.98242,-2.15877c0.5171,-0.13856 1.0486,0.1683 1.18714,0.6854c0.13856,0.5171 -0.16832,1.04859 -0.6854,1.18714z"/>
						<path d="M257.67467,219.92871c0.12179,-0.22913 0.33472,-0.40906 0.60514,-0.48152c0.51708,-0.13855 1.04857,0.16831 1.18713,0.6854c0.06488,0.2421 0.03209,0.48737 -0.07632,0.6995c-1.44069,2.51158 -4.46227,4.12799 -7.45252,4.12831c-4.53552,0 -8.21229,-3.67676 -8.21229,-8.21228c0,-4.53552 3.67677,-8.21228 8.21229,-8.21228c3.8746,0 7.12246,2.68325 7.98676,6.2929l-1.86944,0.52109c-0.63547,-2.79183 -3.13308,-4.87547 -6.11735,-4.87546c-3.46491,-0.00003 -6.27376,2.80883 -6.27374,6.27374c-0.00001,3.46491 2.80885,6.27376 6.27374,6.27374c2.24887,0.00001 4.62358,-1.19962 5.73656,-3.09313"/>
					</g>
					<g>
						<path d="M281.53999,223.99106c0.00001,0.53533 -0.43397,0.9693 -0.9693,0.9693c-0.53532,0 -0.9693,-0.43398 -0.9693,-0.9693v-14.48894c0,-0.53532 0.43397,-0.9693 0.9693,-0.9693c0.53533,0 0.96931,0.43397 0.9693,0.9693z"/>
						<path d="M281.50694,203.43546c0.13854,0.5171 -0.1683,1.04859 -0.6854,1.18714c-0.51708,0.13855 -1.04859,-0.16831 -1.18714,-0.6854c-0.06653,-0.24831 -0.0317,-0.51289 0.09683,-0.73553c0.12853,-0.22264 0.34025,-0.38509 0.58856,-0.45162c0.24831,-0.06653 0.51289,-0.0317 0.73552,0.09683c0.22264,0.12853 0.38509,0.34025 0.45162,0.58856z"/>
					</g>
				</g>
				<g fill="#5cee79" stroke="#5cee79">
					<g>
						<path d="M221.68631,191.22056c0.29404,-9.06977 2.43409,-17.72874 5.99314,-25.53712z" stroke-width="0.6"/>
						<path d="M227.99001,165.75619l-5.99253,25.53677l-0.62915,-0.08404c0.0008,-0.02137 0.0087,-0.04098 0.00941,-0.06235c0.30271,-9.0682 2.44025,-17.72443 5.99253,-25.53677c0.00848,-0.01864 0.01024,-0.04055 0.01869,-0.05918zM222.86029,184.83012l3.0679,-13.06895c-1.45575,4.19443 -2.47144,8.54267 -3.0679,13.06895z" stroke-width="0.75"/>
					</g>
					<g>
						<path d="M232.72873,191.21757c-3.26393,-7.8776 -5.04928,-16.47344 -5.04928,-25.53115z" stroke-width="0.6"/>
						<path d="M233.04198,191.15603l-0.60735,0.18377c-0.00785,-0.01898 -0.01088,-0.04019 -0.01869,-0.05916c-0.00075,-0.00159 0.00076,-0.00478 0,-0.00638c-3.25585,-7.88062 -5.04082,-16.47419 -5.0488,-25.52743c0,-0.0203 -0.00622,-0.03888 -0.00622,-0.05918l0.62916,-0.06229zM231.18568,185.05126l-2.55087,-12.90076c0.4342,4.45436 1.2793,8.74951 2.55087,12.90076z" stroke-width="0.75"/>
					</g>
					<path d="M225.35511,158.63615c0.80015,0 1.60069,0.0199 2.3858,0.08721l2.57267,0.22114l-2.09925,1.50124c-9.22982,6.5965 -20.15295,10.92732 -31.98403,12.20308l-1.05275,0.11525v-1.05897v-0.39555l0.2772,-0.2772c7.65158,-7.66194 18.23025,-12.39618 29.90035,-12.39618zM199.48818,170.15403c9.02543,-1.46878 17.41165,-4.74999 24.82664,-9.51205c-9.48528,0.24557 -18.0565,3.80676 -24.82664,9.51205z" stroke-width="0.5"/>
					<path d="M279.00133,139.51551l2.04319,0.46096l-1.68813,1.23651c-10.14396,7.42277 -21.69197,12.59385 -34.33556,16.05282l-0.00319,0.03114l-0.64784,0.17131c-5.51467,1.47766 -11.04319,2.50457 -16.57289,3.12396l-0.81915,0.09343l-0.20868,-0.80045c0,0 -0.01137,-0.04947 -0.02492,-0.11525c-0.00681,-0.03288 -0.01711,-0.06648 -0.02492,-0.13392c-0.00383,-0.03373 -0.00909,-0.07241 -0.00622,-0.15885c0.00142,-0.04322 0.00506,-0.09944 0.02803,-0.19623c0.01148,-0.0484 0.06201,-0.18627 0.06229,-0.18687c0.00027,-0.00058 0.17876,-0.25108 0.19311,-0.27098c0.00207,-0.00207 0.00415,-0.00415 0.00622,-0.00622c0.00016,-0.00016 0.00318,-0.00318 0.00319,-0.00319c12.266,-12.226 29.22626,-19.64702 47.89975,-19.64702c1.32393,0 2.69379,0.03411 4.09573,0.34884zM230.88667,158.08176c4.33457,-0.6166 8.66891,-1.29307 12.99108,-2.45121c11.80231,-3.16242 22.52704,-7.90985 32.09305,-14.47364c-0.3623,-0.01119 -0.69235,-0.08721 -1.0652,-0.08721c-16.98708,0 -32.33408,6.48425 -44.01893,17.01206z" stroke-width="0.5"/>
				</g>
			</g>
		</g>
	</g>
</svg>